{"title":"Justice.League.Doom.2012.BRRip.Ac3.Xvid.ANALOG-","uid":7036457,"size":1496734401,"categoryP":"video","categoryS":"movies","magnet":"?xt=urn:btih:1cae83b61d7ec013df0e78700722ad0b7be28b8a&amp;dn=Justice.League.Doom.2012.BRRip.Ac3.Xvid.ANALOG-+&amp;tr=udp%3A%2F%2Ftracker.openbittorrent.com%3A80&amp;tr=udp%3A%2F%2Fopen.demonii.com%3A1337&amp;tr=udp%3A%2F%2Ftracker.coppersurfer.tk%3A6969&amp;tr=udp%3A%2F%2Fexodus.desync.com%3A6969","seeders":1,"leechers":0,"uploader":"moviesp2p","files":8,"time":1329399219,"description":"More info www. MoviesP2P .com\n\n\n\n\n[img]http://img38.imageshack.us/img38/332/jld2012brravisnapshot01.png[/img]\n\n\n\n[img]http://img405.imageshack.us/img405/332/jld2012brravisnapshot01.png[/img]\n\n\n\n[img]http://img215.imageshack.us/img215/2603/jld2012brravisnapshot00.png[/img]\n\n\n\n[img]http://img38.imageshack.us/img38/2603/jld2012brravisnapshot00.png[/img]\n\n\n\n[img]http://img834.imageshack.us/img834/2603/jld2012brravisnapshot00.png[/img]\n\n\n\nComplete name                            : C:\\Users\\root\\Desktop\\Justice.League.Doom.2012.BRRip.Ac3.Xvid.ANALOG\\J.L.D.2012.BRR.avi\n\nFormat                                   : AVI\n\nFormat/Info                              : Audio Video Interleave\n\nFile size                                : 1.38 GiB\n\nDuration                                 : 1h 16mn\n\nOverall bit rate                         : 2 578 Kbps\n\nMovie name                               : J.L.D.2012.BRR\n\nWriting application                      : VirtualDub build 32842/release\n\nCopyright                                : ANALOG\n\n\n\nVideo\n\nID                                       : 0\n\nFormat                                   : MPEG-4 Visual\n\nFormat profile                           : Advanced Simple@L5\n\nFormat settings, BVOP                    : 1\n\nFormat settings, QPel                    : No\n\nFormat settings, GMC                     : No warppoints\n\nFormat settings, Matrix                  : Default (H.263)\n\nMuxing mode                              : Packed bitstream\n\nCodec ID                                 : XVID\n\nCodec ID/Hint                            : XviD\n\nDuration                                 : 1h 16mn\n\nBit rate                                 : 2 121 Kbps\n\nWidth                                    : 720 pixels\n\nHeight                                   : 400 pixels\n\nDisplay aspect ratio                     : 16:9\n\nFrame rate                               : 23.976 fps\n\nColor space                              : YUV\n\nChroma subsampling                       : 4:2:0\n\nBit depth                                : 8 bits\n\nScan type                                : Progressive\n\nCompression mode                         : Lossy\n\nBits/(Pixel*Frame)                       : 0.307\n\nStream size                              : 1.14 GiB (82%)\n\nWriting library                          : XviD 64\n\n\n\nAudio\n\nID                                       : 1\n\nFormat                                   : AC-3\n\nFormat/Info                              : Audio Coding 3\n\nMode extension                           : CM (complete main)\n\nCodec ID                                 : 2000\n\nDuration                                 : 1h 16mn\n\nBit rate mode                            : Constant\n\nBit rate                                 : 448 Kbps\n\nChannel(s)                               : 6 channels\n\nChannel positions                        : Front: L C R, Side: L R, LFE\n\nSampling rate                            : 48.0 KHz\n\nBit depth                                : 16 bits\n\nCompression mode                         : Lossy\n\nStream size                              : 246 MiB (17%)\n\nAlignment                                : Aligned on interleaves\n\nInterleave, duration                     : 42 ms (1.00 video frame)\n\nInterleave, preload duration             : 512 ms\n\nLanguage                                 : English\n\nSample                                   : Yes\n\nSource                                   : Justice.League.Doom.2012.720p.BluRay.x264.DTS-HDC  thanx :)\n\nAs humans, we perceive the world in analog. Everything we see and hear is a continuous transmission of information to our senses.\n\n&lt;a class=&quot;__cf_email__&quot; href=&quot;/cdn-cgi/l/email-protection&quot; data-cfemail=&quot;6e0f000f020109401e405c401e2e061b1d06030f0702400d0103&quot;&gt;[email&amp;#160;protected]&lt;/a&gt;&lt;script cf-hash='f9e31' type=&quot;text/javascript&quot;&gt;\n/* &lt;![CDATA[ */!function(){try{var t=&quot;currentScript&quot;in document?document.currentScript:function(){for(var t=document.getElementsByTagName(&quot;script&quot;),e=t.length;e--;)if(t[e].getAttribute(&quot;cf-hash&quot;))return t[e]}();if(t&amp;&amp;t.previousSibling){var e,r,n,i,c=t.previousSibling,a=c.getAttribute(&quot;data-cfemail&quot;);if(a){for(e=&quot;&quot;,r=parseInt(a.substr(0,2),16),n=2;a.length-n;n+=2)i=parseInt(a.substr(n,2),16)^r,e+=String.fromCharCode(i);e=document.createTextNode(e),c.parentNode.replaceChild(e,c)}}}catch(u){}}();/* ]]&gt; */&lt;/script&gt;\n\nGREATINGS TO ALL THE P2P PLACES I LURK AT!!\n\n","torrent":{"xt":"urn:btih:1cae83b61d7ec013df0e78700722ad0b7be28b8a","amp;dn":"Justice.League.Doom.2012.BRRip.Ac3.Xvid.ANALOG-+","amp;tr":["udp%3A%2F%2Ftracker.openbittorrent.com%3A80","udp%3A%2F%2Fopen.demonii.com%3A1337","udp%3A%2F%2Ftracker.coppersurfer.tk%3A6969","udp%3A%2F%2Fexodus.desync.com%3A6969"],"infoHash":"1cae83b61d7ec013df0e78700722ad0b7be28b8a","infoHashBuffer":{"type":"Buffer","data":[28,174,131,182,29,126,192,19,223,14,120,112,7,34,173,11,123,226,139,138]},"announce":[],"urlList":[]}}